<?xml version="1.0" encoding="utf-8"?>
<!-- Generator: Adobe Illustrator 22.0.0, SVG Export Plug-In . SVG Version: 6.00 Build 0)  -->
<svg version="1.1" id="Layer_1" xmlns="http://www.w3.org/2000/svg" xmlns:xlink="http://www.w3.org/1999/xlink" x="0px" y="0px"
	 width="1170.9px" height="1660.4px" viewBox="0 0 1170.9 1660.4" style="enable-background:new 0 0 1170.9 1660.4;"
	 xml:space="preserve">
<style type="text/css">
	.st0{fill:#FAFCF9;}
	.st1{fill:#151F15;}
	.st2{fill:none;}
</style>
<g>
	<path class="st0" d="M1170.9,630.7c-1.1,9.3-2.4,18.6-3.4,28c-1.9,17.4-4.6,34.6-8.3,51.7c-3.4,15.9-7.3,31.6-11.7,47.2
		c-7,24.5-15.8,48.5-26.1,71.8c-21.3,48.3-48.7,93.1-82.1,134.1c-32.1,39.5-68.7,74.4-109.9,104.4c-39.2,28.6-81.2,52.3-126.3,70.5
		c-23.5,9.5-47.4,17.8-71.9,24.1c-32.3,8.4-65.2,14-98.6,17c-27.6,2.5-55.2,2.4-82.7,1.5c-19.5-0.6-39-3-58.4-5.9
		c-20.5-3.1-40.7-7-60.7-12.3c-41.9-11-82.1-26.4-120.6-46.2c-54.7-28.1-103.7-64.1-147.3-107.3c-23.4-23.1-44.5-48.3-63.6-75.1
		c-0.8-1.1-2.1-2.2-1.4-3.5c0.9-1.7,2.8-0.8,4.1-0.6c16.8,1.8,33.6,3.8,50.5,5.4c32,3,64.1,5.1,96.2,6.2c35,1.2,70,1.7,105,0.6
		c29.9-1,59.7-2.7,89.4-5.9c23.4-2.6,46.7-5.9,69.8-10.4c23.4-4.5,46.6-10.1,69.5-16.8c7.5-2.2,14.9-4.9,23.2-6.4
		c-41.2,54-82.4,107.9-124.3,162.9c8.1-0.4,14.9-0.4,21.6-1.2c19.4-2.3,38.8-4.7,58.1-8.2c16.8-3,33.5-6.3,50.1-10.1
		c16.4-3.8,32.6-8.4,48.9-12.7c18.4-4.9,36.6-10.8,54.6-17c18.7-6.5,37.3-13.3,55.6-20.7c29.8-12.1,59.1-25.5,87.7-40.1
		c40.1-20.5,78.7-43.1,116.1-68.1c61.7-41.2,118.9-87.9,171.6-140.1c1.4-1.4,4-2.4,3.3-4.8c-0.8-2.7-3.7-2-5.9-2.4
		c-16.3-2.7-32.5-5.5-48.8-8.2c-15.7-2.6-31.5-5.2-47.2-7.8c-16.3-2.7-32.6-5.4-48.9-8.1c-16.1-2.7-32.2-5.3-48.3-7.9
		c-15.7-2.6-31.4-5.3-47.1-7.9c-16.5-2.7-32.9-5.4-49.4-8.1c-15.3-2.5-30.7-5.1-46-7.6c-17-2.8-34.1-5.6-51.1-8.4
		c-16.1-2.7-32.1-5.5-48.2-8.2c-15.7-2.6-31.5-5.1-47.2-7.7c-11-1.8-22.1-3.6-33.1-5.5c-16.7-2.8-33.4-5.2-50-8.4
		c-12.1-2.3-24.2-4.2-36.2-6.4c-10.1-1.9-20.4-3.6-30.7-4.7c-7.5-0.8-14.8-3.2-22.6-3.2c0.3,4.3,3.7,6.7,5.8,9.5
		c35.5,47.9,71.1,95.8,106.7,143.6c0.9,1.3,3.2,2.5,2,4.3c-1,1.5-3.1,0.4-4.8,0.2c-21.9-2.8-43.8-5.2-65.5-8.7
		c-19.5-3.1-39-6.2-58.2-10.4c-16.3-3.6-32.7-6.4-49-10c-14.4-3.2-28.7-6.9-43-10.4c-14.9-3.6-29.7-7.5-44.3-12
		c-16.3-4.9-32.7-9.2-48.8-14.6c-20.5-6.9-41-14-61.3-21.8c-30.8-11.8-61.1-24.7-90.7-39.1c-34.7-16.8-68.3-35.7-100.3-57.1
		c-5.8-3.9-11.4-8-17.2-11.7c-3.9-2.5-3.4-4.1,0-6.6c25.2-18.1,51.2-35,78.1-50.4c39.1-22.4,79.7-41.7,121.3-58.8
		c29.6-12.2,59.7-23,90.2-33.1c29.4-9.7,59.1-18.5,89-26.4c20.3-5.4,40.7-10.5,61.3-14.6c16.5-3.3,32.9-7.5,49.5-10.5
		c20.2-3.6,40.3-7.5,60.6-10.1c8-1,16-2.4,25.2-3c-38,53.9-75.4,106.9-113.7,161.3c221.2-42.3,441-84.4,661.3-126.6
		c-2.4-4.6-6.5-7.4-9.9-10.5C1069.8,347,1002,295.9,928.2,252.9C877,223.1,824,197.2,768.8,175.7c-33.8-13.1-68.1-24.6-102.9-34.4
		c-26.6-7.5-53.5-14-80.6-19.3c-38.1-7.4-76.4-12.7-115.2-14.4c-1.1-0.1-2.2,0.1-4.7,0.2c43.2,53.8,85.8,106.9,129.4,161.2
		c-12-3.5-22.6-6.6-33.2-9.5c-15.5-4.2-31.2-7.7-47.1-10.5c-15.9-2.9-31.8-5.3-47.8-7.3c-26.1-3.2-52.2-5.4-78.4-6.4
		c-35.8-1.4-71.5-1.3-107.3,0.1c-29.7,1.2-59.2,3.6-88.8,6.3c-22.1,2.1-44.2,5.1-66.2,7.7c-7.5,0.9-15,2.4-22.5,3.7
		c-2.4,0.4-4.8,0.9-7.9,0.2c6.8-10.4,14.2-20,21.8-29.5C166.1,162.5,224.7,112.7,293,74.4c28.4-15.9,58.1-29.3,88.8-40.2
		c22.3-7.9,44.9-14.7,68-19.8c31.3-7,63.1-11.7,95.2-13.2c5.3-0.3,10.6-0.7,15.9-1c12.9,0,25.9,0,38.8,0c5.7-0.6,11.3,0.8,17,1.1
		c31.9,1.5,63.5,6.1,94.6,13.1c27,6.1,53.5,14.3,79.5,24.2c36.4,13.8,71,31,103.8,51.7c49.3,31.1,93.3,68.5,131.5,112.6
		c37.2,43,68,90,91.6,141.8c10.6,23.3,19.9,47.2,27.4,71.7c5.3,17.4,9.9,34.9,13.6,52.7c4,19.2,7.1,38.4,9.2,57.9
		c0.8,7.6,0.7,15.3,3,22.7C1170.9,576.7,1170.9,603.7,1170.9,630.7z"/>
	<path class="st1" d="M2.2,1329c3.9-21.4,12.3-40.6,29.5-54.7c20.7-17,44.4-21,70.1-14.7c4.4,1.1,5.9,3.1,4.6,8.1
		c-2.3,9-3.8,18.2-5.3,27.4c-0.5,3-1.5,3.7-4.4,2.7c-25.7-8.7-41.6,7.8-46.6,27.3c-5,19.5-5.3,39,0,58.6
		c5.4,19.7,20.5,29.8,40.6,26.9c9.7-1.4,9.7-1.4,10.8,8.1c0.8,7.7,1.4,15.5,2.4,23.2c0.4,3-0.6,4.6-3.5,5.3
		c-38.5,8.9-77.4-0.7-93.5-45.4C-4.7,1363.9,1.8,1330.9,2.2,1329z"/>
	<path class="st1" d="M340.3,1655.5c-5-1.3-6.5-3.7-4.9-9.2c0.6-2,1.5-7.2,2-10.6c0.4-4.8,1.9-5.4,6.3-3.4
		c6.9,3.3,14.5,4.3,22.2,3.9c8.9-0.4,16.1-4,19.6-12.2c3.7-8.7,2.6-17.5-3.5-25.2c-5-6.4-11.7-10.7-18.1-15.2
		c-12.3-8.7-22.5-19-26.4-34.2c-5.3-20.6,6.4-49,35.8-53c10.2-1.4,20-0.6,29.8,2.5c3.2,1,4.9,2.4,4,6.1c-1.1,4.6-2,9.3-2.8,13.9
		c-0.6,3.7-2.2,4.2-5.4,2.7c-6.3-3-13-4.3-20-3.1c-16.1,2.8-22.5,20.4-12.1,33.1c4.7,5.8,11.1,9.5,17.2,13.6
		c13.4,9,24.4,19.7,27.9,36.4c5.3,25.5-6.6,53.5-41.1,57.1C359.7,1659.6,346,1657,340.3,1655.5z"/>
	<path class="st1" d="M1104.3,1338.2c4.3-25.7,10.8-50.7,15.4-76.1c0.5-2.6,1.8-3.4,4.3-3.3c12.6,0.1,25.1,0.1,37.7,0
		c3.8-0.1,4.2,1.4,3.1,4.4c-6.2,17.5-12.3,35-18.6,52.5c-7.2,20.2-14.4,40.3-21.6,60.5c-0.6,1.7-0.5,3.8-0.5,5.6
		c0,20.4-0.1,40.7,0.1,61.1c0,4.2-0.6,6-5.4,5.8c-11.2-0.4-22.5-0.3-33.7,0c-4.1,0.1-5.1-1.3-5.1-5.1c0.2-15.2-0.6-30.5,0.3-45.7
		c0.8-14.1-2.7-26.9-7.4-39.9c-9.9-27.8-19.3-55.8-29-83.8c-0.7-2.1-1.7-4.1-3.7-6.2c0,4.9,0.1,9.8,0,14.7c-0.2,5.5,2.4,12.5-1,16
		c-3.4,3.6-23.2,1.5-26.7,1.1c-4.6-0.5-5.2,1.4-5.2,5.4c0.1,45.3,0.1,90.6,0.1,135.9c0,7.4,0,7.4-7.4,7.4c-10.5,0-21-0.2-31.4,0.1
		c-4.6,0.2-5.7-1.3-5.7-5.7c0.2-45.3,0-90.6,0.2-135.9c0-5.6-1-7.8-7.1-7.3c-6.8,0.6-13.7-0.1-20.5,0.2c-4.2,0.2-5.7-1-5.5-5.4
		c0.3-10.1,0.4-20.2,0-30.3c-0.2-4.7,1.5-5.5,5.8-5.5c46.5,0.1,92.9,0.1,139.4,0.1c1.1,0,2.3,0.2,3.4,0c5.8-1.2,7.8,1.8,9,7.1
		c3.9,17,8.4,33.8,12.5,50.8C1101.6,1323.8,1102.8,1331,1104.3,1338.2z"/>
	<path class="st1" d="M454.8,1334.4c-2,36.8-4,72.5-5.7,108.3c-0.2,4.7-1.5,6.2-6.3,6c-9.1-0.4-18.3-0.2-27.4-0.1
		c-3.2,0.1-4.3-0.9-4-4.2c2.1-24.3,4-48.5,5.9-72.8c1.8-22.9,3.5-45.9,5.3-68.8c1-12.9,1.9-25.8,2.7-38.7c0.2-3.9,1.4-5.5,5.8-5.4
		c12.2,0.3,24.4,0.2,36.5,0c3.5,0,4.7,1.1,5.4,4.7c4,21.1,8.4,42,12.5,63.1c3.7,18.6,7.3,37.2,11,56c1.6-0.5,1.2-2.2,1.4-3.5
		c2.3-20,6.4-39.7,10.1-59.5c3.5-18.3,7.3-36.5,10.7-54.7c0.8-4.5,2.3-6.3,7.3-6.2c11.8,0.4,23.6,0.2,35.4,0.1c3.6-0.1,4.8,1,5,4.8
		c3.1,53.7,6.3,107.4,9.5,161.2c0.4,6.5,0.9,12.9,1.7,19.3c0.4,3.6-0.8,4.7-4.3,4.6c-9.9-0.2-19.8-0.3-29.7,0
		c-4.1,0.1-5-1.5-5.2-5.2c-1.6-33.2-4-66.5-4.4-99.8c0-2,0.5-4.1-0.9-6.2c-3.3,16.1-6.5,32.1-10,48c-4,18.1-8.3,36.2-12.4,54.3
		c-0.7,3.3-2,4.7-5.7,4.5c-7.6-0.3-15.2-0.3-22.8,0c-3.6,0.1-4.8-1.2-5.5-4.5c-7.3-34.3-15.9-68.4-21-103.1
		C455.7,1336.4,455.5,1336.1,454.8,1334.4z"/>
	<path class="st1" d="M357.8,1336c-1.9,9.6-4,19.1-5.8,28.7c-3.6,19.2-8.3,38.2-12.7,57.2c-1.4,6.1-2.8,12.2-4,18.3
		c-0.6,2.8-1.7,4.1-4.9,4.1c-8.2-0.2-16.4-0.1-24.6,0c-2.6,0-3.8-0.5-4.4-3.6c-5.6-26.9-11.6-53.8-17.3-80.7
		c-1.1-5.2-2-10.5-2.8-15.7c-0.3-1.7-0.4-3.3-2.3-4.5c-1.7,33.2-3.4,66.1-5,99.1c0,0.8-0.1,1.5,0,2.3c0.6,5.8-1.6,7.9-7.7,7.5
		c-8.5-0.6-17.1-0.3-25.7-0.1c-3.4,0.1-4.6-0.9-4.3-4.6c3.5-43.2,7-86.4,10.3-129.7c1.3-16.9,2.6-33.8,3.6-50.6
		c0.2-4.1,1.7-5.1,5.5-5c12.2,0.2,24.4,0.2,36.5,0c3.5,0,4.6,0.9,5.3,4.5c6.3,32.4,13.1,64.7,19.6,97.1c1.5,7.3,2.5,14.8,4.2,22.1
		c3.3-18.7,6.3-37.3,10-55.8c3.5-17.7,6.9-35.4,10.4-53.1c0.1-0.7,0.4-1.5,0.6-2.2c1.1-4.1-0.3-9.9,3.4-12.1
		c3.2-1.8,8.1-0.6,12.3-0.6c9.1,0,18.3,0.1,27.4-0.1c3.8-0.1,5.1,0.8,5.4,4.9c2.7,46,5.8,91.9,8.7,137.9c0.9,14,1.6,28.1,2.6,42.1
		c0.3,4.2-1.1,5.1-5,5c-9.7-0.3-19.4-0.3-29.1,0c-3.8,0.1-4.8-1.1-5-4.7C361.1,1408,358.5,1372.1,357.8,1336z"/>
	<path class="st1" d="M768.8,1334.8c0.9,16.4,1.2,32.8,1.4,49.2c0.2,20,0.4,40,0.8,59.9c0.1,3.9-1.5,4.7-5.1,4.7
		c-9.5-0.2-19-0.3-28.5,0c-4,0.1-5.1-1.2-5.1-5.1c0.2-28.4,0.1-56.7,0.1-85.1c0-31.4,0.1-62.8-0.1-94.2c0-4.2,0.9-5.6,5.3-5.5
		c10.3,0.3,20.6,0.2,30.8,0c3.1,0,4.8,1,5.9,4c11.7,30.4,23.5,60.8,35.2,91.2c2.4,6.3,4.6,12.7,7.8,18.9c-0.3-3.8-0.5-7.6-0.8-11.4
		c-2.4-32.3-3.6-64.6-3.3-97c0-4.5,1.2-5.8,5.7-5.6c9.5,0.3,19,0.2,28.5,0c3.4-0.1,4.6,0.8,4.6,4.4c-0.1,60.3-0.1,120.7,0,181
		c0,3.6-1.1,4.5-4.6,4.5c-10.7-0.2-21.3-0.1-32,0c-2.6,0-3.8-0.6-4.9-3.3C796.2,1408.7,780.3,1372.6,768.8,1334.8z"/>
	<path class="st1" d="M593.4,1331.5c0-25.3,0.2-46.1-0.1-66.8c-0.1-4.8,1.4-6.1,6.1-5.9c11,0.4,22.1,0.3,33.1,0c4.2-0.1,5,1.2,5,5.1
		c-0.1,40-0.1,79.9-0.1,119.9c0,7.7,1.1,15.2,4.6,22.1c2.2,4.4,5.8,6.8,11,6.4c5-0.4,7.8-3.3,9.6-7.7c3.1-7.4,3.4-15.1,3.4-22.9
		c0.1-38.8,0.1-77.6-0.1-116.5c0-4.9,0.9-6.6,6.2-6.4c11,0.4,22.1,0.3,33.1,0.1c3.5-0.1,5,0.7,5,4.7c-0.1,38.8,0.2,77.6-0.2,116.5
		c-0.1,13.7-2.6,27.1-8.3,39.9c-7.2,16.3-19.2,26.6-36.8,29.6c-20.2,3.5-39.1,1.2-54.2-14.3c-8.4-8.5-12.2-19.4-14.4-30.9
		C591.4,1378.6,594.4,1352.7,593.4,1331.5z"/>
	<path class="st1" d="M821.1,1615.7c2.1-10.9,3.9-20.4,5.9-29.8c4.1-18.7,8.4-37.4,12.6-56.1c2.1-9.2,4.3-18.5,6.2-27.8
		c0.8-4,2.3-5.8,6.8-5.5c6.3,0.4,12.6,0.2,18.8,0c2.7-0.1,3.6,0.9,3.7,3.6c1.3,22.4,2.9,44.8,4.2,67.2c1.7,28.3,3.1,56.6,4.9,84.9
		c0.3,4.9-1.3,5.8-5.6,5.5c-4.4-0.3-8.8-0.3-13.1,0c-3.6,0.3-4.4-1.1-4.6-4.4c-0.9-19.6-1.8-39.1-3.2-58.7
		c-1.2-17.1-1-34.2-2.3-51.6c-1,4.5-2.3,9-3.1,13.6c-4,21.5-9.8,42.5-15.1,63.7c-2.6,10.5-5.5,20.9-7.9,31.4
		c-0.8,3.4-2.2,4.6-5.8,4.6c-13.4,0.1-13.5,0.3-16.6-13.4c-7.2-32-16.6-63.5-22.3-95.9c-0.1-0.6-0.3-1.1-0.9-3
		c-1.8,11.8-1.5,22.4-2.1,32.9c-1.3,25.3-2.4,50.6-3.4,75.8c-0.2,4.1-1.6,5.3-5.4,5c-5.5-0.4-12.7,1.7-16-1
		c-3.5-3-0.7-10.4-0.4-15.8c1.9-29.8,4.1-59.6,6.1-89.4c1.1-16.1,2.2-32.3,2.8-48.4c0.2-5.3,1.9-7,7.1-6.6c5.5,0.4,11,0.3,16.5,0
		c3.2-0.1,4.9,1,5.6,4.1c6.2,27,12.6,53.9,18.9,80.9C816,1592.6,818.4,1603.5,821.1,1615.7z"/>
	<path class="st1" d="M157.5,1544.7c0,13.4,0,27,0,40.6c0,22.5,0,44.9,0.2,67.4c0,3.9-0.8,5.5-5,5.1c-4.7-0.3-9.5-0.3-14.3,0
		c-3.2,0.2-3.8-1.1-3.8-4c0.1-51,0.1-102,0-153.1c0-3.4,1.2-4.4,4.3-4.1c1.1,0.1,15.4-0.9,19.4,1.2c2.3,1.2,4.3,9.4,6.2,14.3
		c12.6,32.1,25.6,64,37,96.5c0.2,0.5,0.6,0.9,1.8,2.3c0-3.1,0.1-5.2,0-7.2c-1.8-33.7-2.3-67.3-2.2-101c0-5.2,1.4-6.7,6.3-6.1
		c3.8,0.4,7.6,0.3,11.4,0c4.5-0.4,5.7,1.2,5.7,5.7c-0.2,31.6-0.1,63.2-0.1,94.8c0,18.1-0.1,36.2,0.1,54.3c0.1,4.7-0.9,6.6-6.2,6.5
		c-18.1-0.1-17.9,0.1-24.5-16.7c-12.3-31.2-25.5-62-35.7-94C157.9,1546.3,158.1,1544.9,157.5,1544.7z"/>
	<path class="st1" d="M272.4,1567.7c7.5-16.1,14.9-32.1,22.3-48c3-6.5,6.2-13,9.1-19.5c1.1-2.4,2.4-3.6,5.1-3.5c8,0.1,16,0,25.1,0
		c-4.4,8.3-8.4,15.9-12.4,23.4c-7.7,14.3-15.4,28.7-23.3,42.9c-1.5,2.7-1.2,4.9-0.1,7.5c11.5,27.2,22.9,54.5,34.5,81.6
		c1.9,4.3,1.7,6.1-3.7,5.7c-5.9-0.4-11.8-0.3-17.7,0c-3.6,0.2-5.5-1.1-6.8-4.4c-7.7-20.2-15.5-40.3-23.2-60.5
		c-0.6-1.5-0.5-3.8-2.6-3.9c-1.6,0-7.2,3.2-7.4,20.3c-0.1,14.5,0,28.9,0.1,43.4c0,3.5-0.8,5.2-4.8,5c-5.1-0.3-10.3-0.4-15.4,0
		c-4.5,0.3-5.8-1.1-5.8-5.7c0.2-29.1,0.1-58.3,0.1-87.4c0-20.6,0.2-41.1-0.1-61.7c-0.1-5.5,1.8-6.9,6.8-6.4c4.3,0.4,8.8,0.4,13.1,0
		c4.7-0.4,6.2,1,6.2,5.9c-0.3,20.6-0.2,41.1-0.2,61.7C271.2,1565.3,270.7,1566.5,272.4,1567.7z"/>
	<path class="st1" d="M919.7,1353.9c0,29.7-0.1,59.3,0.1,89c0,4.4-1,5.9-5.6,5.8c-10.8-0.4-21.7-0.4-32.5,0
		c-4.9,0.2-6.5-1.1-6.4-6.3c0.2-56.5,0.1-113,0.1-169.5c0-3.4,0.1-6.9,0-10.3c-0.2-3,1-3.9,4-3.9c12.2,0.1,24.3,0.2,36.5-0.1
		c4.2-0.1,3.9,2.2,3.9,5C919.6,1293.8,919.7,1323.9,919.7,1353.9z"/>
	<path class="st1" d="M981.2,1577c0-24.9,0.1-49.9-0.1-74.8c0-4,0.6-5.7,5.2-5.6c18.8,0.3,37.7,0.2,56.5,0c3.8,0,5.1,1.1,4.9,4.8
		c-0.3,4.7-0.3,9.5,0,14.3c0.1,3.1-1.1,3.9-4,3.8c-10.7-0.1-21.3,0.1-32-0.1c-3.4-0.1-4.6,0.7-4.5,4.4c0.2,11.8,0.2,23.6,0,35.4
		c0,3,0.9,3.9,3.8,3.9c9.7-0.1,19.4,0.1,29.1-0.1c3.8-0.1,5.7,0.7,5.2,4.9c-0.7,5.4,2.4,12.4-1.3,15.9c-3.3,3.2-10.2,0.8-15.5,0.9
		c-5.9,0.2-11.8,0.1-17.7,0c-2.7-0.1-3.7,0.8-3.7,3.6c0.1,14.5,0.1,28.9,0,43.4c0,3.7,2,3.8,4.7,3.8c11.2-0.1,22.5,0.1,33.7-0.1
		c3.9-0.1,5.5,1.1,5.1,5.2c-0.5,5.4,2.2,12.4-1,16c-3.3,3.7-10.4,1.1-15.9,1.2c-15.8,0.2-31.6-0.1-47.4,0.1
		c-4.3,0.1-5.4-1.3-5.4-5.5C981.3,1627.3,981.2,1602.2,981.2,1577z"/>
	<path class="st1" d="M1086.9,1620.3c3.8-18.6-3.9-39-11.9-59.5c-7.6-19.4-14.4-39.1-21.7-58.5c-1.6-4.3-1-6,4.1-5.7
		c5.9,0.4,11.8,0.3,17.7,0c3.3-0.1,4.7,1.3,5.6,4.3c5.7,18.9,11.6,37.7,17.3,56.5c0.6,2,0.8,4.1,1.1,6.1c0.2,1.3,0.7,2.4,1.9,2.5
		c1.8,0.3,1.1-1.5,1.5-2.4c4.4-11.1,6.5-22.9,10.2-34.2c3.2-9.9,6.1-19.9,9-29.9c0.6-2,1.5-2.9,3.5-2.9c7,0,14.1,0.1,21.1,0
		c4,0,2.4,2.3,1.7,4.1c-5.8,15.4-11.7,30.8-17.6,46.2c-5.7,14.6-11.5,29.2-17.1,43.9c-0.7,1.9-0.6,4.1-0.6,6.2c0,18.7-0.1,37.3,0,56
		c0,3.6-0.7,5.1-4.7,4.8c-5.3-0.4-10.7-0.4-16,0c-4.6,0.4-5.4-1.6-5.3-5.6C1087.1,1642.9,1086.9,1633.6,1086.9,1620.3z"/>
	<path class="st1" d="M901.2,1577.2c0-24.9,0.1-49.9-0.1-74.8c0-4.5,1.2-6.1,5.7-5.7c4.9,0.4,9.9,0.4,14.8,0
		c4.5-0.4,5.8,1.2,5.7,5.7c-0.2,34.5-0.1,68.9-0.1,103.4c0,8.6,0.2,17.1-0.1,25.7c-0.1,3.9,1.3,4.7,4.8,4.7
		c11-0.2,22.1,0.1,33.1-0.2c3.8-0.1,5.1,1.1,4.8,4.8c-0.3,4.4-0.2,8.8,0,13.1c0.1,2.9-0.9,4.1-3.9,4c-20.4-0.1-40.7-0.2-61.1,0
		c-4.4,0-3.7-2.6-3.7-5.3C901.2,1627.4,901.2,1602.3,901.2,1577.2z"/>
	<path class="st1" d="M7.5,1577.2c0-24.9,0.1-49.9-0.1-74.8c0-4.5,1.2-6.1,5.8-5.7c4.3,0.4,8.8,0.5,13.1,0c5.7-0.6,7.4,1.1,7.4,7
		c-0.3,34.4-0.2,68.9-0.1,103.3c0,8.2,0.2,16.4-0.1,24.5c-0.1,3.5,0.9,4.6,4.4,4.5c11.2-0.2,22.5,0.1,33.7-0.2
		c3.7-0.1,5.1,1,4.8,4.8c-0.3,4.4-0.2,8.8,0,13.1c0.1,3-1,4-4,4c-20.4-0.1-40.7-0.1-61.1,0c-4.3,0-3.8-2.6-3.8-5.3
		C7.6,1627.4,7.6,1602.3,7.5,1577.2C7.6,1577.2,7.6,1577.2,7.5,1577.2z"/>
	<path class="st1" d="M113.5,1577.8c0,24.5-0.2,49.1,0.1,73.6c0.1,5.6-1.8,6.9-6.8,6.5c-4.7-0.4-9.5-0.3-14.3,0
		c-4,0.2-5.2-1.3-5.2-5.2c0.2-16.9,0.1-33.9,0.1-50.8c0-32.5,0-65.1,0-97.6c0-7.5,0-7.5,7.2-7.5c4.4,0,8.8,0.3,13.1-0.1
		c4.6-0.4,5.8,1.4,5.7,5.8C113.4,1527.6,113.5,1552.7,113.5,1577.8C113.5,1577.8,113.5,1577.8,113.5,1577.8z"/>
	<g>
		<path class="st1" d="M746.8,1570.4c-0.4-17.9-2.7-35.6-11.2-51.9c-15-29.1-50.9-31.9-70.3-5.5c-8.2,11.1-12,23.9-14.2,37.3
			c-3,18.2-3.1,36.3,0,54.5c4.1,24.6,11.7,46.8,38.9,55.1c4.2,0.6,9,0.6,12.6,0c0.2-0.3,21.8-2.2,33.4-25.8
			C745.9,1614,747.3,1592.3,746.8,1570.4z M715.3,1618.2c-1,3.9-2.4,7.5-4.6,10.9c-7.1,10.8-18.7,10.8-25.5-0.3
			c-6.6-10.8-7.8-23.2-8.9-35.5c-0.5-5.3-0.1-10.6-0.1-16c-0.3-15.8,0.4-31.5,6.6-46.4c2.9-7,7.2-13.2,15.4-13.2c8,0,12,6.1,15,12.8
			c3,6.7,4.4,13.7,5.2,20.9C720.7,1573.8,721.1,1596.1,715.3,1618.2z"/>
	</g>
	<path class="st1" d="M219.2,1291c-8.2-18.9-21.9-31.8-43.2-34.1c-23.9-2.6-42.5,6.2-55.6,26.6c-13.8,21.4-17.6,45.3-17.8,65.7
		c0.1,27.4,2.9,49.9,13.8,70.6c10.5,20.1,26.9,31.1,49.7,31c23.3-0.1,40.5-11,51-31.9c7.7-15.4,10.7-31.9,12.1-48.9
		C231.3,1343,230.2,1316.3,219.2,1291z M180.5,1394.2c-0.9,4.1-2.3,8-4.3,11.7c-4.7,8.2-13,8.8-18.7,1.2c-3.8-5.1-5.4-11.3-6.5-17.4
		c-2.1-11.8-3.1-23.7-2.4-34.9c-0.5-15.5,0.4-30.1,4.5-44.3c1.1-3.7,2.6-7.1,4.7-10.3c4.8-7.4,13.3-7.5,18.1-0.1
		c4.2,6.3,5.9,13.7,6.7,20.9C185,1345.5,185.5,1370,180.5,1394.2z"/>
	<g>
		<path class="st2" d="M484.4,1583.3c-2.6,0.5-2.3,2-2.3,3.6c0,7.8,0,15.6,0,23.3c0,8,0,15.9,0,23.9c0,1.7-0.7,4,2.3,4.2
			c8.6,0.5,17,0.4,24-6.1c8.4-7.8,10.9-23.4,5.2-34.7C508.7,1587.8,495.3,1581.4,484.4,1583.3z"/>
		<path class="st1" d="M537.2,1588.7c-5.2-8.2-12.8-13.2-22.7-17.1c13.9-6.8,21.7-16.6,23.2-30.8c2.1-19.8-7-37.3-28.5-42.2
			c-16.2-3.7-32.4-2.8-48.7-0.2c-3.2,0.5-3.9,1.6-3.9,4.6c0.1,50.1,0.1,100.1,0,150.2c0,3.6,1.4,4.5,4.6,4.7
			c16,1.2,31.9,1.7,47.7-1.7C538.3,1650,553.2,1614.2,537.2,1588.7z M487.7,1516.1c15-1,23.2,5.7,24.6,20.2
			c1.4,14.7-7.4,25.9-21.6,27.5c-8.5,1-8.7,0.8-8.7-7.5c0-5.3,0-10.7,0-16c0-6.1,0.4-12.2-0.1-18.3
			C481.5,1517.3,483.7,1516.4,487.7,1516.1z M508.4,1632.3c-7,6.5-15.4,6.6-24,6.1c-3-0.2-2.3-2.5-2.3-4.2c-0.1-8,0-15.9,0-23.9
			c0-7.8,0-15.6,0-23.3c0-1.7-0.3-3.2,2.3-3.6c10.9-1.9,24.3,4.5,29.2,14.3C519.3,1608.9,516.8,1624.5,508.4,1632.3z"/>
		<path class="st1" d="M482.1,1540.4c0,5.3,0,10.7,0,16C482.1,1551,482.1,1545.7,482.1,1540.4c0-6.1,0.4-12.2-0.1-18.3
			C482.4,1528.1,482.1,1534.3,482.1,1540.4z"/>
	</g>
	<g>
		<path class="st1" d="M644.1,1652.5c-4.4-13.6-6.3-27.7-9.2-41.7c-2.4-11.6-5.8-22.9-18.7-29.2c6.6-4.3,12.5-8.1,16.5-14
			c7.6-11.1,8.9-23.4,7.3-36.5c-2-15.9-13.1-28.7-28.6-32.3c-16.2-3.7-32.4-2.9-48.7-0.6c-4.7,0.7-5.1,2.8-5.1,6.6
			c0.1,18.5,0.1,36.9,0.1,55.4c0,30.5,0.1,60.9-0.1,91.4c0,5.2,1.5,6.7,6.4,6.2c3.8-0.4,7.6-0.1,11.4-0.1c8.1,0,8,0,8-8.3
			c-0.1-17.5-0.1-35,0.1-52.5c0-2.1-1.3-5.1,2.8-5.7c8.6-1.3,15.8,2.4,19.6,10.3c2.4,5,3.6,10.3,4.5,15.8c1.9,12,3.9,24,6.9,35.8
			c0.8,3.2,2.3,4.9,5.9,4.7c5.7-0.3,11.4-0.4,17.1,0C644.9,1658.3,645.4,1656.5,644.1,1652.5z M614.1,1548.1
			c-3,15.9-12,23.5-26.7,23.1c-3.2-0.1-4.3-1.1-4.3-4.3c0.2-7.8,0.1-15.6,0.1-23.4c0,0,0,0,0,0c0-7.2,0.2-14.5-0.1-21.7
			c-0.2-3.9,1.4-4.7,4.9-4.9C607,1516,617.8,1528.7,614.1,1548.1z"/>
	</g>
</g>
</svg>
